<svg width="13" height="15" viewBox="0 0 13 15" fill="none" xmlns="http://www.w3.org/2000/svg">
<path fill-rule="evenodd" clip-rule="evenodd" d="M11.4633 5.12938C11.4633 6.05877 11.709 6.60657 12.2495 7.23784C12.6592 7.7029 12.7901 8.29989 12.7901 8.94755C12.7901 9.59447 12.5775 10.2086 12.1517 10.7072C11.5942 11.3049 10.808 11.6865 10.0056 11.7529C8.84288 11.852 7.67939 11.9355 6.50045 11.9355C5.32078 11.9355 4.15802 11.8855 2.99526 11.7529C2.19214 11.6865 1.40594 11.3049 0.849196 10.7072C0.423366 10.2086 0.210083 9.59447 0.210083 8.94755C0.210083 8.29989 0.34173 7.7029 0.750644 7.23784C1.30812 6.60657 1.53758 6.05877 1.53758 5.12938V4.81412C1.53758 3.56947 1.84795 2.7556 2.48706 1.95888C3.43727 0.796953 4.9604 0.100098 6.46736 0.100098H6.53355C8.07286 0.100098 9.64527 0.830492 10.5793 2.04235C11.1853 2.82268 11.4633 3.60226 11.4633 4.81412V5.12938ZM4.3346 13.4651C4.3346 13.0925 4.67659 12.9218 4.99284 12.8488C5.36277 12.7705 7.61695 12.7705 7.98689 12.8488C8.30313 12.9218 8.64512 13.0925 8.64512 13.4651C8.62673 13.8199 8.4186 14.1344 8.13104 14.3341C7.75816 14.6248 7.32056 14.8089 6.86311 14.8752C6.61011 14.908 6.36153 14.9088 6.11735 14.8752C5.65916 14.8089 5.22157 14.6248 4.84942 14.3334C4.56113 14.1344 4.35299 13.8199 4.3346 13.4651Z" fill="#272835"/>
</svg>
